<svg width="168" height="39" viewBox="0 0 168 39" fill="none" xmlns="http://www.w3.org/2000/svg">
<path d="M31.2749 7.8428C27.4022 7.8428 21.9311 8.16683 19.1352 10.9613C17.9247 12.1718 17.3202 14.1451 17.4771 16.3787C17.4975 16.6737 17.6937 16.925 17.9756 17.0181C18.256 17.1096 18.5641 17.0239 18.7559 16.7987C20.3108 14.9691 22.2435 13.5029 24.5046 12.4406C24.6964 12.3491 24.9231 12.3418 25.1295 12.4145C25.3111 12.4799 25.4535 12.6033 25.5276 12.7618C25.6816 13.0873 25.6322 13.516 25.1207 13.7572C25.0917 13.7717 25.0655 13.7906 25.0365 13.8037C25.0263 13.8081 25.0147 13.8066 25.006 13.811C19.4346 16.4296 16.6954 20.9983 15.4514 25.6964C14.5446 19.814 12.6294 16.3511 10.8202 14.2251C9.51095 12.5279 8.22341 11.6283 7.47943 11.1198C7.34136 11.0253 6.92435 10.7405 6.7514 10.5675C6.46803 10.2842 6.46803 9.8235 6.7514 9.54013C7.03477 9.2582 7.49687 9.2582 7.81218 9.57208C7.88923 9.6404 8.01272 9.72759 8.16966 9.83222L8.29902 9.91941C9.35108 10.6402 11.31 11.9785 13.0479 14.8601C13.2034 15.1173 13.5042 15.2554 13.7963 15.2002C14.0928 15.1479 14.3252 14.9197 14.3834 14.6247C14.7627 12.6877 14.5927 9.81328 12.8649 8.0855C10.069 5.2925 4.59789 4.96847 0.726671 4.96847C0.32553 4.9684 0 5.29393 0 5.695C0 9.56765 0.324032 15.0388 3.11846 17.8347C4.28387 19.0001 6.08147 19.5233 7.86736 19.5233C9.32486 19.5233 10.7533 19.1585 11.8476 18.5264C13.3399 21.6187 14.5316 26.2383 14.5316 33.305C14.5316 33.7061 14.8571 34.0316 15.2582 34.0316C15.6592 34.0316 15.9848 33.7061 15.9848 33.305C15.9848 29.3626 16.6605 24.6311 19.173 20.7366C20.18 21.7205 21.9137 22.3439 23.8347 22.402C23.9306 22.4049 24.0251 22.4063 24.1195 22.4063C26.0711 22.4063 27.796 21.7946 28.8815 20.7076C31.6773 17.9117 31.9999 12.4405 31.9999 8.56783C32.0015 8.16683 31.6774 7.8428 31.2749 7.8428Z" fill="#00B307"/>
<path d="M49.728 30.724C48.2347 30.724 46.8907 30.468 45.696 29.956C44.5013 29.4227 43.5627 28.676 42.88 27.716C42.1973 26.756 41.856 25.636 41.856 24.356H45.76C45.8453 25.316 46.2187 26.1053 46.88 26.724C47.5627 27.3427 48.512 27.652 49.728 27.652C50.9867 27.652 51.968 27.3533 52.672 26.756C53.376 26.1373 53.728 25.348 53.728 24.388C53.728 23.6413 53.504 23.0333 53.056 22.564C52.6293 22.0947 52.0853 21.732 51.424 21.476C50.784 21.22 49.888 20.9427 48.736 20.644C47.2853 20.26 46.1013 19.876 45.184 19.492C44.288 19.0867 43.52 18.468 42.88 17.636C42.24 16.804 41.92 15.6947 41.92 14.308C41.92 13.028 42.24 11.908 42.88 10.948C43.52 9.988 44.416 9.252 45.568 8.74C46.72 8.228 48.0533 7.972 49.568 7.972C51.7227 7.972 53.4827 8.516 54.848 9.604C56.2347 10.6707 57.0027 12.1427 57.152 14.02H53.12C53.056 13.2093 52.672 12.516 51.968 11.94C51.264 11.364 50.336 11.076 49.184 11.076C48.1387 11.076 47.2853 11.3427 46.624 11.876C45.9627 12.4093 45.632 13.1773 45.632 14.18C45.632 14.8627 45.8347 15.428 46.24 15.876C46.6667 16.3027 47.2 16.644 47.84 16.9C48.48 17.156 49.3547 17.4333 50.464 17.732C51.936 18.1373 53.1307 18.5427 54.048 18.948C54.9867 19.3533 55.776 19.9827 56.416 20.836C57.0773 21.668 57.408 22.788 57.408 24.196C57.408 25.3267 57.0987 26.3933 56.48 27.396C55.8827 28.3987 54.9973 29.2093 53.824 29.828C52.672 30.4253 51.3067 30.724 49.728 30.724ZM69.8725 12.58C71.2165 12.58 72.4112 12.868 73.4565 13.444C74.5232 14.02 75.3552 14.8733 75.9525 16.004C76.5712 17.1347 76.8805 18.5 76.8805 20.1V30.5H73.2645V20.644C73.2645 19.0653 72.8698 17.86 72.0805 17.028C71.2912 16.1747 70.2138 15.748 68.8485 15.748C67.4832 15.748 66.3952 16.1747 65.5845 17.028C64.7952 17.86 64.4005 19.0653 64.4005 20.644V30.5H60.7525V6.82H64.4005V14.916C65.0192 14.1693 65.7978 13.5933 66.7365 13.188C67.6965 12.7827 68.7418 12.58 69.8725 12.58ZM88.2218 30.788C86.5578 30.788 85.0538 30.4147 83.7098 29.668C82.3658 28.9 81.3098 27.8333 80.5418 26.468C79.7738 25.0813 79.3898 23.4813 79.3898 21.668C79.3898 19.876 79.7844 18.2867 80.5738 16.9C81.3631 15.5133 82.4404 14.4467 83.8058 13.7C85.1711 12.9533 86.6964 12.58 88.3818 12.58C90.0671 12.58 91.5924 12.9533 92.9578 13.7C94.3231 14.4467 95.4004 15.5133 96.1898 16.9C96.9791 18.2867 97.3738 19.876 97.3738 21.668C97.3738 23.46 96.9684 25.0493 96.1578 26.436C95.3471 27.8227 94.2378 28.9 92.8298 29.668C91.4431 30.4147 89.9071 30.788 88.2218 30.788ZM88.2218 27.62C89.1604 27.62 90.0351 27.396 90.8458 26.948C91.6778 26.5 92.3498 25.828 92.8618 24.932C93.3738 24.036 93.6298 22.948 93.6298 21.668C93.6298 20.388 93.3844 19.3107 92.8938 18.436C92.4031 17.54 91.7524 16.868 90.9418 16.42C90.1311 15.972 89.2564 15.748 88.3178 15.748C87.3791 15.748 86.5044 15.972 85.6938 16.42C84.9044 16.868 84.2751 17.54 83.8058 18.436C83.3364 19.3107 83.1018 20.388 83.1018 21.668C83.1018 23.5667 83.5818 25.0387 84.5418 26.084C85.5231 27.108 86.7498 27.62 88.2218 27.62ZM103.668 15.46C104.287 14.6493 105.129 13.9667 106.196 13.412C107.263 12.8573 108.468 12.58 109.812 12.58C111.348 12.58 112.745 12.964 114.004 13.732C115.284 14.4787 116.287 15.5347 117.012 16.9C117.737 18.2653 118.1 19.8333 118.1 21.604C118.1 23.3747 117.737 24.964 117.012 26.372C116.287 27.7587 115.284 28.8467 114.004 29.636C112.745 30.404 111.348 30.788 109.812 30.788C108.468 30.788 107.273 30.5213 106.228 29.988C105.183 29.4333 104.329 28.7507 103.668 27.94V38.884H100.02V12.868H103.668V15.46ZM114.388 21.604C114.388 20.388 114.132 19.3427 113.62 18.468C113.129 17.572 112.468 16.9 111.636 16.452C110.825 15.9827 109.951 15.748 109.012 15.748C108.095 15.748 107.22 15.9827 106.388 16.452C105.577 16.9213 104.916 17.604 104.404 18.5C103.913 19.396 103.668 20.452 103.668 21.668C103.668 22.884 103.913 23.9507 104.404 24.868C104.916 25.764 105.577 26.4467 106.388 26.916C107.22 27.3853 108.095 27.62 109.012 27.62C109.951 27.62 110.825 27.3853 111.636 26.916C112.468 26.4253 113.129 25.7213 113.62 24.804C114.132 23.8867 114.388 22.82 114.388 21.604ZM136.908 21.252C136.908 21.9133 136.865 22.5107 136.78 23.044H123.308C123.414 24.452 123.937 25.5827 124.876 26.436C125.814 27.2893 126.966 27.716 128.332 27.716C130.294 27.716 131.681 26.8947 132.492 25.252H136.428C135.894 26.8733 134.924 28.2067 133.516 29.252C132.129 30.276 130.401 30.788 128.332 30.788C126.646 30.788 125.132 30.4147 123.788 29.668C122.465 28.9 121.42 27.8333 120.652 26.468C119.905 25.0813 119.532 23.4813 119.532 21.668C119.532 19.8547 119.894 18.2653 120.62 16.9C121.366 15.5133 122.401 14.4467 123.724 13.7C125.068 12.9533 126.604 12.58 128.332 12.58C129.996 12.58 131.478 12.9427 132.78 13.668C134.081 14.3933 135.094 15.4173 135.82 16.74C136.545 18.0413 136.908 19.5453 136.908 21.252ZM133.1 20.1C133.078 18.756 132.598 17.6787 131.66 16.868C130.721 16.0573 129.558 15.652 128.172 15.652C126.913 15.652 125.836 16.0573 124.94 16.868C124.044 17.6573 123.51 18.7347 123.34 20.1H133.1ZM143.185 15.428C143.719 14.532 144.423 13.8387 145.297 13.348C146.193 12.836 147.249 12.58 148.465 12.58V16.356H147.537C146.108 16.356 145.02 16.7187 144.273 17.444C143.548 18.1693 143.185 19.428 143.185 21.22V30.5H139.537V12.868H143.185V15.428ZM166.731 12.868L155.915 38.788H152.139L155.723 30.212L148.779 12.868H152.843L157.803 26.308L162.955 12.868H166.731Z" fill="#002603"/>
</svg>
